<mxfile host="Electron" agent="Mozilla/5.0 (Windows NT 10.0; Win64; x64) AppleWebKit/537.36 (KHTML, like Gecko) draw.io/24.7.17 Chrome/128.0.6613.36 Electron/32.0.1 Safari/537.36" version="24.7.17">
  <diagram name="Страница — 1" id="HZbK5cBH_YWiGIk4RW3f">
    <mxGraphModel dx="1036" dy="606" grid="1" gridSize="10" guides="1" tooltips="1" connect="1" arrows="1" fold="1" page="1" pageScale="1" pageWidth="827" pageHeight="1169" math="0" shadow="0">
      <root>
        <mxCell id="0" />
        <mxCell id="1" parent="0" />
        <mxCell id="WtKUQnCcqsQRbW9yOqke-2" value="S0/y0" style="ellipse;whiteSpace=wrap;html=1;aspect=fixed;" vertex="1" parent="1">
          <mxGeometry x="210" y="120" width="60" height="60" as="geometry" />
        </mxCell>
        <mxCell id="WtKUQnCcqsQRbW9yOqke-11" style="edgeStyle=orthogonalEdgeStyle;rounded=0;orthogonalLoop=1;jettySize=auto;html=1;entryX=1;entryY=0.5;entryDx=0;entryDy=0;" edge="1" parent="1" source="WtKUQnCcqsQRbW9yOqke-3" target="WtKUQnCcqsQRbW9yOqke-3">
          <mxGeometry relative="1" as="geometry">
            <mxPoint x="720" y="130" as="targetPoint" />
            <Array as="points">
              <mxPoint x="620" y="180" />
              <mxPoint x="710" y="180" />
              <mxPoint x="710" y="230" />
            </Array>
          </mxGeometry>
        </mxCell>
        <mxCell id="WtKUQnCcqsQRbW9yOqke-3" value="S1/y1" style="ellipse;whiteSpace=wrap;html=1;aspect=fixed;" vertex="1" parent="1">
          <mxGeometry x="590" y="200" width="60" height="60" as="geometry" />
        </mxCell>
        <mxCell id="WtKUQnCcqsQRbW9yOqke-20" style="edgeStyle=orthogonalEdgeStyle;rounded=0;orthogonalLoop=1;jettySize=auto;html=1;entryX=1;entryY=1;entryDx=0;entryDy=0;exitX=0.06;exitY=0.723;exitDx=0;exitDy=0;exitPerimeter=0;" edge="1" parent="1" source="WtKUQnCcqsQRbW9yOqke-4" target="WtKUQnCcqsQRbW9yOqke-4">
          <mxGeometry relative="1" as="geometry">
            <mxPoint x="340" y="470" as="targetPoint" />
            <Array as="points">
              <mxPoint x="270" y="433" />
              <mxPoint x="270" y="480" />
              <mxPoint x="361" y="480" />
            </Array>
          </mxGeometry>
        </mxCell>
        <mxCell id="WtKUQnCcqsQRbW9yOqke-4" value="S2/y2" style="ellipse;whiteSpace=wrap;html=1;aspect=fixed;" vertex="1" parent="1">
          <mxGeometry x="310" y="390" width="60" height="60" as="geometry" />
        </mxCell>
        <mxCell id="WtKUQnCcqsQRbW9yOqke-6" value="" style="endArrow=classic;html=1;rounded=0;exitX=1;exitY=0;exitDx=0;exitDy=0;entryX=0;entryY=0;entryDx=0;entryDy=0;" edge="1" parent="1" source="WtKUQnCcqsQRbW9yOqke-2" target="WtKUQnCcqsQRbW9yOqke-3">
          <mxGeometry width="50" height="50" relative="1" as="geometry">
            <mxPoint x="390" y="340" as="sourcePoint" />
            <mxPoint x="440" y="290" as="targetPoint" />
          </mxGeometry>
        </mxCell>
        <mxCell id="WtKUQnCcqsQRbW9yOqke-7" value="" style="endArrow=classic;html=1;rounded=0;exitX=0;exitY=0.5;exitDx=0;exitDy=0;entryX=1;entryY=0.5;entryDx=0;entryDy=0;" edge="1" parent="1" source="WtKUQnCcqsQRbW9yOqke-3" target="WtKUQnCcqsQRbW9yOqke-2">
          <mxGeometry width="50" height="50" relative="1" as="geometry">
            <mxPoint x="271" y="139" as="sourcePoint" />
            <mxPoint x="609" y="219" as="targetPoint" />
          </mxGeometry>
        </mxCell>
        <mxCell id="WtKUQnCcqsQRbW9yOqke-9" value="&lt;font style=&quot;font-size: 14px;&quot;&gt;x0, x4&lt;/font&gt;" style="text;html=1;align=center;verticalAlign=middle;whiteSpace=wrap;rounded=0;" vertex="1" parent="1">
          <mxGeometry x="400" y="130" width="60" height="30" as="geometry" />
        </mxCell>
        <mxCell id="WtKUQnCcqsQRbW9yOqke-10" value="&lt;font style=&quot;font-size: 14px;&quot;&gt;x0, x4&lt;/font&gt;" style="text;html=1;align=center;verticalAlign=middle;whiteSpace=wrap;rounded=0;" vertex="1" parent="1">
          <mxGeometry x="384" y="200" width="60" height="30" as="geometry" />
        </mxCell>
        <mxCell id="WtKUQnCcqsQRbW9yOqke-12" value="&lt;font style=&quot;font-size: 14px;&quot;&gt;x2&lt;/font&gt;" style="text;html=1;align=center;verticalAlign=middle;whiteSpace=wrap;rounded=0;" vertex="1" parent="1">
          <mxGeometry x="640" y="150" width="60" height="30" as="geometry" />
        </mxCell>
        <mxCell id="WtKUQnCcqsQRbW9yOqke-13" style="edgeStyle=orthogonalEdgeStyle;rounded=0;orthogonalLoop=1;jettySize=auto;html=1;entryX=0;entryY=0.5;entryDx=0;entryDy=0;" edge="1" parent="1" source="WtKUQnCcqsQRbW9yOqke-2" target="WtKUQnCcqsQRbW9yOqke-2">
          <mxGeometry relative="1" as="geometry">
            <Array as="points">
              <mxPoint x="240" y="100" />
              <mxPoint x="150" y="100" />
              <mxPoint x="150" y="150" />
            </Array>
          </mxGeometry>
        </mxCell>
        <mxCell id="WtKUQnCcqsQRbW9yOqke-14" value="&lt;font style=&quot;font-size: 14px;&quot;&gt;x2, x3&lt;/font&gt;" style="text;html=1;align=center;verticalAlign=middle;whiteSpace=wrap;rounded=0;" vertex="1" parent="1">
          <mxGeometry x="160" y="70" width="60" height="30" as="geometry" />
        </mxCell>
        <mxCell id="WtKUQnCcqsQRbW9yOqke-15" value="" style="endArrow=classic;html=1;rounded=0;exitX=0.233;exitY=0.03;exitDx=0;exitDy=0;entryX=0.5;entryY=1;entryDx=0;entryDy=0;exitPerimeter=0;" edge="1" parent="1" source="WtKUQnCcqsQRbW9yOqke-4" target="WtKUQnCcqsQRbW9yOqke-2">
          <mxGeometry width="50" height="50" relative="1" as="geometry">
            <mxPoint x="609" y="261" as="sourcePoint" />
            <mxPoint x="271" y="181" as="targetPoint" />
          </mxGeometry>
        </mxCell>
        <mxCell id="WtKUQnCcqsQRbW9yOqke-16" value="" style="endArrow=classic;html=1;rounded=0;exitX=0;exitY=1;exitDx=0;exitDy=0;entryX=0;entryY=0.5;entryDx=0;entryDy=0;" edge="1" parent="1" source="WtKUQnCcqsQRbW9yOqke-2" target="WtKUQnCcqsQRbW9yOqke-4">
          <mxGeometry width="50" height="50" relative="1" as="geometry">
            <mxPoint x="271" y="139" as="sourcePoint" />
            <mxPoint x="609" y="219" as="targetPoint" />
          </mxGeometry>
        </mxCell>
        <mxCell id="WtKUQnCcqsQRbW9yOqke-17" value="&lt;font style=&quot;font-size: 14px;&quot;&gt;x1&lt;/font&gt;" style="text;html=1;align=center;verticalAlign=middle;whiteSpace=wrap;rounded=0;" vertex="1" parent="1">
          <mxGeometry x="210" y="280" width="60" height="30" as="geometry" />
        </mxCell>
        <mxCell id="WtKUQnCcqsQRbW9yOqke-18" value="&lt;font style=&quot;font-size: 14px;&quot;&gt;x4&lt;/font&gt;" style="text;html=1;align=center;verticalAlign=middle;whiteSpace=wrap;rounded=0;" vertex="1" parent="1">
          <mxGeometry x="280" y="270" width="60" height="30" as="geometry" />
        </mxCell>
        <mxCell id="WtKUQnCcqsQRbW9yOqke-21" value="&lt;font style=&quot;font-size: 14px;&quot;&gt;x1, x3&lt;/font&gt;" style="text;html=1;align=center;verticalAlign=middle;whiteSpace=wrap;rounded=0;" vertex="1" parent="1">
          <mxGeometry x="280" y="480" width="60" height="30" as="geometry" />
        </mxCell>
        <mxCell id="WtKUQnCcqsQRbW9yOqke-22" value="" style="endArrow=classic;html=1;rounded=0;exitX=1;exitY=0;exitDx=0;exitDy=0;entryX=0;entryY=1;entryDx=0;entryDy=0;" edge="1" parent="1" source="WtKUQnCcqsQRbW9yOqke-4" target="WtKUQnCcqsQRbW9yOqke-3">
          <mxGeometry width="50" height="50" relative="1" as="geometry">
            <mxPoint x="600" y="240" as="sourcePoint" />
            <mxPoint x="280" y="160" as="targetPoint" />
          </mxGeometry>
        </mxCell>
        <mxCell id="WtKUQnCcqsQRbW9yOqke-23" value="" style="endArrow=classic;html=1;rounded=0;exitX=0.5;exitY=1;exitDx=0;exitDy=0;entryX=1;entryY=0.5;entryDx=0;entryDy=0;" edge="1" parent="1" source="WtKUQnCcqsQRbW9yOqke-3" target="WtKUQnCcqsQRbW9yOqke-4">
          <mxGeometry width="50" height="50" relative="1" as="geometry">
            <mxPoint x="271" y="139" as="sourcePoint" />
            <mxPoint x="609" y="219" as="targetPoint" />
          </mxGeometry>
        </mxCell>
        <mxCell id="WtKUQnCcqsQRbW9yOqke-24" value="&lt;font style=&quot;font-size: 14px;&quot;&gt;x1, x3&lt;/font&gt;" style="text;html=1;align=center;verticalAlign=middle;whiteSpace=wrap;rounded=0;" vertex="1" parent="1">
          <mxGeometry x="510" y="340" width="60" height="30" as="geometry" />
        </mxCell>
        <mxCell id="WtKUQnCcqsQRbW9yOqke-25" value="&lt;font style=&quot;font-size: 14px;&quot;&gt;x0, x2&lt;/font&gt;" style="text;html=1;align=center;verticalAlign=middle;whiteSpace=wrap;rounded=0;" vertex="1" parent="1">
          <mxGeometry x="430" y="290" width="60" height="30" as="geometry" />
        </mxCell>
      </root>
    </mxGraphModel>
  </diagram>
</mxfile>
